<svg version="1.0" xmlns="http://www.w3.org/2000/svg" preserveAspectRatio="xMidYMid meet" viewBox="224 573.16 587.82 99.84">  <!-- Full bright blue version for dark background --> <g transform="translate(0.000000,1024.000000) scale(0.100000,-0.100000)" fill="#007BFF" stroke="none"> <path d="M7954 4409 c-103 -102 -104 -103 -120 -81 -8 12 -20 19 -26 16 -6 -4 -8 -3 -5 3 4 6 -3 19 -14 29 -22 20 -51 11 -57 -19 -3 -16 113 -147 130 -147 5 0 66 56 135 124 100 99 124 128 121 147 -2 18 -10 25 -31 27 -24 3 -44 -11 -133 -99z"/> <path d="M6486 4333 c-3 -15 -4 -150 -3 -299 4 -308 5 -315 78 -334 37 -10 69 -8 122 6 17 5 22 31 11 71 -5 18 -11 21 -33 17 -18 -4 -32 0 -44 13 -15 17 -17 51 -19 284 l-3 264 -52 3 c-49 3 -51 2 -57 -25z"/> <path d="M2348 4323 l-108 -4 0 -314 0 -315 220 0 220 0 0 60 0 60 -160 0 -161 0 3 78 3 77 133 3 133 3 -3 47 -3 47 -133 3 -133 3 3 72 3 72 90 -3 c50 -2 118 0 153 3 l62 7 0 54 0 54 -107 -2 c-60 -1 -156 -4 -215 -5z"/> <path d="M5960 4010 l0 -310 60 0 60 0 0 130 0 130 135 0 135 0 0 50 0 50 -135 0 -135 0 0 80 0 80 155 0 155 0 0 50 0 50 -215 0 -215 0 0 -310z"/> <path d="M3112 4163 l-53 -4 -51 -81 c-58 -91 -49 -93 -116 19 l-37 63 -63 0 c-74 0 -75 9 22 -128 36 -51 66 -97 66 -102 0 -5 -28 -49 -63 -97 -35 -48 -72 -100 -81 -115 l-18 -28 65 0 66 0 48 80 c26 44 51 80 54 80 4 0 28 -34 55 -75 38 -58 55 -75 74 -76 69 -4 92 -4 96 3 2 3 -30 53 -71 111 -41 57 -75 109 -75 115 0 7 34 59 75 117 70 99 86 128 68 123 -5 -1 -32 -3 -61 -5z"/> <path d="M3435 4154 c-16 -9 -40 -28 -52 -42 -22 -26 -23 -26 -23 -5 0 44 -10 53 -61 53 l-49 0 0 -325 0 -325 60 0 60 0 0 132 0 132 29 -32 c37 -40 68 -52 133 -52 68 0 129 35 164 96 32 55 43 160 24 228 -15 55 -72 124 -117 142 -43 18 -131 17 -168 -2z m111 -103 c17 -10 38 -34 47 -54 59 -123 -51 -250 -164 -191 -39 20 -59 68 -59 140 0 50 3 59 34 90 40 40 92 46 142 15z"/> <path d="M3944 4156 c-48 -21 -105 -77 -125 -121 -28 -62 -25 -158 7 -223 33 -67 74 -98 156 -118 54 -14 74 -14 123 -4 51 11 66 20 114 68 l56 56 -60 9 c-46 7 -61 6 -70 -5 -35 -47 -119 -63 -163 -32 -24 17 -52 64 -52 89 0 13 24 15 181 15 l182 0 -6 55 c-7 74 -51 151 -105 190 -39 27 -53 30 -125 33 -54 1 -93 -3 -113 -12z m164 -89 c25 -12 52 -55 52 -82 0 -13 -18 -15 -115 -15 -107 0 -115 1 -115 19 0 29 47 80 83 89 35 9 59 6 95 -11z"/> <path d="M4580 4154 c-19 -8 -50 -29 -67 -46 l-33 -32 0 42 0 42 -55 0 -55 0 0 -235 0 -235 59 0 60 0 3 144 c3 162 11 183 80 220 30 17 39 18 65 7 46 -19 53 -46 53 -216 l0 -155 60 0 60 0 0 183 c0 206 -12 252 -69 281 -38 20 -115 20 -161 0z"/> <path d="M4992 4151 c-32 -15 -47 -31 -62 -63 -26 -56 -25 -88 3 -129 19 -29 37 -39 126 -69 118 -40 142 -60 115 -99 -15 -21 -23 -23 -73 -19 -45 4 -104 24 -162 55 -4 2 -16 -13 -28 -33 -27 -45 -20 -55 57 -85 79 -30 201 -31 258 -1 54 28 78 65 78 124 0 73 -42 108 -174 143 -100 28 -128 66 -75 101 31 20 87 13 147 -17 22 -11 41 -19 43 -17 7 9 35 68 35 76 0 21 -79 45 -160 49 -70 3 -92 0 -128 -16z"/> <path d="M5500 4154 c-145 -63 -185 -268 -77 -391 37 -42 72 -61 137 -73 97 -18 202 21 244 90 10 17 16 33 14 34 -10 9 -108 14 -108 5 0 -17 -64 -49 -98 -49 -45 0 -89 24 -107 60 -31 61 -33 60 166 60 l182 0 -6 58 c-8 98 -61 174 -144 209 -43 17 -159 16 -203 -3z m190 -104 c15 -16 30 -41 32 -55 5 -24 3 -25 -51 -26 -74 -2 -175 2 -180 7 -2 2 2 18 9 35 18 42 64 69 118 69 36 0 49 -6 72 -30z"/> <path d="M6897 4156 c-121 -44 -184 -179 -142 -306 54 -163 257 -215 389 -98 55 48 79 104 78 185 -1 72 -23 121 -74 170 -60 58 -166 79 -251 49z m174 -124 c50 -56 48 -161 -4 -210 -87 -82 -207 -20 -207 108 0 49 20 90 57 120 42 33 117 24 154 -18z"/> <path d="M7260 4154 c0 -4 27 -75 59 -158 32 -83 71 -184 86 -223 l27 -73 43 0 c24 0 50 6 57 14 8 7 31 57 53 110 21 53 42 96 45 96 4 0 26 -49 50 -110 l42 -110 49 0 c46 0 50 2 68 38 17 34 140 350 155 400 7 21 5 22 -48 22 l-55 0 -19 -52 c-10 -29 -38 -108 -62 -175 -23 -68 -46 -123 -49 -123 -8 0 -61 141 -61 164 0 9 12 45 26 79 49 116 49 107 1 107 l-42 0 -24 -75 c-13 -41 -27 -73 -30 -71 -3 2 -17 36 -31 75 l-24 71 -44 0 c-50 0 -50 1 -1 -109 l29 -63 -28 -89 c-15 -49 -30 -89 -33 -89 -4 0 -25 55 -49 123 -23 67 -51 146 -62 175 l-19 52 -55 0 c-30 0 -54 -3 -54 -6z"/> </g> </svg>